<?xml version="1.0" standalone="no"?><svg xmlns="http://www.w3.org/2000/svg" viewBox="0 0 1440 320"><path fill="#1E329D" fill-opacity="1" d="M0,64L26.7,53.3C53.3,43,107,21,160,48C213.3,75,267,149,320,149.3C373.3,149,427,75,480,69.3C533.3,64,587,128,640,160C693.3,192,747,192,800,176C853.3,160,907,128,960,122.7C1013.3,117,1067,139,1120,122.7C1173.3,107,1227,53,1280,53.3C1333.3,53,1387,107,1413,133.3L1440,160L1440,0L1413.3,0C1386.7,0,1333,0,1280,0C1226.7,0,1173,0,1120,0C1066.7,0,1013,0,960,0C906.7,0,853,0,800,0C746.7,0,693,0,640,0C586.7,0,533,0,480,0C426.7,0,373,0,320,0C266.7,0,213,0,160,0C106.7,0,53,0,27,0L0,0Z"></path></svg>